# xmcd
#
# Track frame offsets:
# 150
# 10560
# 23772
# 35807
# 49305
# 64722
# 75700
# 88075
# 101517
# 111307
#
# Disc length: 1660 seconds
#
# Revision: 2
# Processed by: cddbd v1.5.2PL0 Copyright (c) Steve Scherf et al.
# Submitted via: Axialis_AX_CDPlayer 2.6
#
DISCID=79067a0a
DTITLE=Various Artist - The Best of Americana - Disc 1
DYEAR=2002
DGENRE=Bluegrass
TTITLE0=The Big Rock Candy Mountain - Henry McClintock with Guitar
TTITLE1=Walk Right In - Cannon's Jug Stompers
TTITLE2=Over the Mountain - Uncle Dave Macon
TTITLE3=Blue Yodel  # 8 (Mule Skinner Blues) - Jimmie Rodgers
TTITLE4=In the Pines - Bill Monroe 
TTITLE5=Foggy Mountain Breakdown - Lester Flatt
TTITLE6=Brown's Ferry Blues - Delmore Brothers
TTITLE7=Soldier's Joy - Gid Tanner and His Skillet Lickers
TTITLE8=Darling Corey - Monroe Brothers
TTITLE9=Wabash Cannonball - The Carter Family
EXTD=
EXTT0=
EXTT1=
EXTT2=
EXTT3=
EXTT4=
EXTT5=
EXTT6=
EXTT7=
EXTT8=
EXTT9=
PLAYORDER=
